<svg xmlns="http://www.w3.org/2000/svg" viewBox="0 0 32 32">
  <rect width="32" height="32" rx="6" fill="#140f0d"/>
  <!-- cup body -->
  <path fill="#d97706" d="M7 12h13v11c0 2.2-1.8 4-4 4h-5c-2.2 0-4-1.8-4-4V12z"/>
  <path fill="#b45309" d="M7 12h13v3H7v-3z"/>
  <!-- handle -->
  <path fill="none" stroke="#d97706" stroke-width="2" stroke-linecap="round" d="M20 15h2.5c2 0 3.5 1.5 3.5 3.5S24.5 22 22.5 22H20"/>
  <!-- steam -->
  <path fill="none" stroke="#eaddca" stroke-width="1.4" stroke-linecap="round" opacity="0.85" d="M10 7c1-1.5 2-1.5 3-3M15 6c.8-1.2 1.6-1.2 2.2-2.4M20 7c1-1.5 2-1.5 3-3"/>
</svg>
